<?xml version="1.0" standalone="no"?>
<!DOCTYPE svg PUBLIC "-//W3C//DTD SVG 20010904//EN"
 "http://www.w3.org/TR/2001/REC-SVG-20010904/DTD/svg10.dtd">
<svg version="1.0" xmlns="http://www.w3.org/2000/svg"
 width="60.000000pt" height="60.000000pt" viewBox="0 0 60.000000 60.000000"
 preserveAspectRatio="xMidYMid meet">

<g transform="translate(0.000000,60.000000) scale(0.100000,-0.100000)"
fill="#000000" stroke="none">
<path d="M330 390 c-11 -11 -20 -29 -20 -39 0 -20 38 -56 71 -66 23 -8 25 -41
3 -49 -9 -4 -27 0 -39 8 -19 13 -25 13 -34 2 -22 -27 37 -52 84 -36 59 19 49
89 -16 112 -18 6 -29 17 -29 28 0 24 17 35 33 21 8 -6 18 -6 27 -1 11 7 11 11
1 24 -18 22 -57 20 -81 -4z"/>
<path d="M236 320 c-8 -83 -17 -100 -42 -79 -20 16 -45 -4 -26 -23 18 -18 73
-14 88 7 20 26 19 175 0 175 -10 0 -15 -22 -20 -80z"/>
</g>
</svg>
